<?xml version="1.0" encoding="UTF-8"?>
<!DOCTYPE svg PUBLIC "-//W3C//DTD SVG 1.1//EN" "http://www.w3.org/Graphics/SVG/1.1/DTD/svg11.dtd">
<!-- Creator: CorelDRAW 2018 (64-Bit) -->
<svg xmlns="http://www.w3.org/2000/svg" xml:space="preserve" width="455.496mm" height="455.496mm" version="1.1" style="shape-rendering:geometricPrecision; text-rendering:geometricPrecision; image-rendering:optimizeQuality; fill-rule:evenodd; clip-rule:evenodd"
viewBox="0 0 24817.21 24817.21"
 xmlns:xlink="http://www.w3.org/1999/xlink">
 <defs>
  <style type="text/css">
   <![CDATA[
    .str0 {stroke:#FEFEFE;stroke-width:461.29;stroke-miterlimit:22.9256}
    .str1 {stroke:#FEFEFE;stroke-width:10.9;stroke-miterlimit:22.9256}
    .fil0 {fill:none}
    .fil1 {fill:#FEFEFE}
   ]]>
  </style>
 </defs>
 <g id="Layer_x0020_1">
  <metadata id="CorelCorpID_0Corel-Layer"/>
  <circle class="fil0 str0" cx="12408.6" cy="12408.6" r="12177.96"/>
  <path class="fil1 str1" d="M12409.89 9474.13c-1624.3,0 -2934.47,1310.17 -2934.47,2934.47 0,1624.3 1310.17,2934.47 2934.47,2934.47 1624.3,0 2934.47,-1310.17 2934.47,-2934.47 0,-1624.3 -1310.17,-2934.47 -2934.47,-2934.47zm0 4842.26c-1049.67,0 -1907.79,-855.57 -1907.79,-1907.79 0,-1052.22 855.57,-1907.79 1907.79,-1907.79 1052.22,0 1907.79,855.57 1907.79,1907.79 0,1052.22 -858.12,1907.79 -1907.79,1907.79zm3738.96 -4962.3c0,380.54 -306.47,684.45 -684.45,684.45 -380.54,0 -684.45,-306.47 -684.45,-684.45 0,-377.98 306.47,-684.45 684.45,-684.45 377.98,0 684.45,306.47 684.45,684.45zm1943.54 694.67c-43.42,-916.86 -252.84,-1729.01 -924.53,-2398.14 -669.13,-669.13 -1481.28,-878.55 -2398.14,-924.53 -944.96,-53.63 -3777.27,-53.63 -4722.22,0 -914.31,43.42 -1726.46,252.84 -2398.14,921.97 -671.68,669.13 -878.55,1481.28 -924.53,2398.14 -53.63,944.96 -53.63,3777.27 0,4722.22 43.42,916.86 252.84,1729.01 924.53,2398.14 671.69,669.13 1481.28,878.55 2398.14,924.53 944.96,53.63 3777.27,53.63 4722.22,0 916.86,-43.42 1729.01,-252.84 2398.14,-924.53 669.13,-669.13 878.55,-1481.28 924.53,-2398.14 53.63,-944.96 53.63,-3774.72 0,-4719.67zm-1220.78 5733.58c-199.21,500.57 -584.85,886.21 -1087.98,1087.98 -753.41,298.81 -2541.16,229.86 -3373.75,229.86 -832.58,0 -2622.89,66.4 -3373.75,-229.86 -500.57,-199.21 -886.21,-584.85 -1087.98,-1087.98 -298.81,-753.41 -229.86,-2541.16 -229.86,-3373.75 0,-832.58 -66.4,-2622.89 229.86,-3373.75 199.21,-500.57 584.85,-886.21 1087.98,-1087.98 753.41,-298.81 2541.16,-229.86 3373.75,-229.86 832.58,0 2622.89,-66.4 3373.75,229.86 500.57,199.21 886.21,584.85 1087.98,1087.98 298.81,753.41 229.86,2541.16 229.86,3373.75 0,832.58 68.95,2622.89 -229.86,3373.75z"/>
 </g>
</svg>
