<?xml version="1.0" encoding="UTF-8"?>
<!DOCTYPE svg PUBLIC "-//W3C//DTD SVG 1.1//EN" "http://www.w3.org/Graphics/SVG/1.1/DTD/svg11.dtd">
<!-- Creator: CorelDRAW 2018 (64-Bit) -->
<svg xmlns="http://www.w3.org/2000/svg" xml:space="preserve" width="455.496mm" height="455.496mm" version="1.1" style="shape-rendering:geometricPrecision; text-rendering:geometricPrecision; image-rendering:optimizeQuality; fill-rule:evenodd; clip-rule:evenodd"
viewBox="0 0 24817.21 24817.21"
 xmlns:xlink="http://www.w3.org/1999/xlink">
 <defs>
  <style type="text/css">
   <![CDATA[
    .str0 {stroke:#FEFEFE;stroke-width:461.29;stroke-miterlimit:22.9256}
    .fil0 {fill:none}
    .fil1 {fill:#FEFEFE}
   ]]>
  </style>
 </defs>
 <g id="Layer_x0020_1">
  <metadata id="CorelCorpID_0Corel-Layer"/>
  <circle class="fil0 str0" cx="12408.6" cy="12408.6" r="12177.96"/>
  <path class="fil1" d="M16953.31 10078.17c7.26,101.63 7.26,203.29 7.26,304.92 0,3099.97 -2359.45,6671.85 -6671.85,6671.85 -1328.57,0 -2562.74,-384.79 -3600.91,-1052.67 188.76,21.77 370.25,29.03 566.27,29.03 1096.23,0 2105.37,-370.25 2911.22,-1001.86 -1030.91,-21.79 -1894.84,-696.96 -2192.5,-1626.23 145.21,21.77 290.4,36.29 442.87,36.29 210.53,0 421.08,-29.05 617.09,-79.85 -1074.46,-217.82 -1880.34,-1161.59 -1880.34,-2301.39l0 -29.03c312.17,174.24 675.19,283.14 1059.94,297.64 -631.62,-421.08 -1045.41,-1139.8 -1045.41,-1952.92 0,-435.59 116.14,-834.88 319.43,-1183.36 1154.33,1422.94 2889.46,2352.19 4835.09,2453.85 -36.29,-174.24 -58.08,-355.72 -58.08,-537.22 0,-1292.28 1045.43,-2344.95 2344.95,-2344.95 675.17,0 1284.99,283.14 1713.34,740.51 529.96,-101.63 1038.15,-297.66 1488.28,-566.27 -174.26,544.51 -544.51,1001.88 -1030.91,1292.25 471.9,-50.8 929.27,-181.5 1350.33,-362.98 -319.38,464.62 -718.7,878.41 -1176.07,1212.39l-0.01 0.01z"/>
 </g>
</svg>
